<svg xmlns="http://www.w3.org/2000/svg" fill="none" viewBox="0 0 17 17" id="Internet">
  <ellipse cx="8.725" cy="8.28" fill="#f72106" stroke="#ffffff" stroke-width=".579" rx="7.725" ry="7.985" class="color011d47 svgShape colorStrokeffffff svgStroke"></ellipse>
  <path fill="#f72106" stroke="#ffffff" stroke-width=".579" d="M11.2469 8.27996C11.2469 10.5435 10.9349 12.5805 10.4388 14.0416C10.1903 14.7736 9.90084 15.3451 9.59362 15.7279C9.28423 16.1132 8.98888 16.2702 8.72523 16.2702C8.46158 16.2702 8.16623 16.1132 7.85685 15.7279C7.54962 15.3451 7.26016 14.7736 7.01162 14.0416C6.51552 12.5805 6.20356 10.5435 6.20356 8.27996C6.20356 6.01644 6.51552 3.97938 7.01162 2.5183C7.26016 1.78631 7.54962 1.21477 7.85685 0.832063C8.16623 0.44667 8.46158 0.289744 8.72523 0.289744C8.98888 0.289744 9.28423 0.44667 9.59362 0.832063C9.90084 1.21477 10.1903 1.78631 10.4388 2.5183C10.9349 3.97938 11.2469 6.01644 11.2469 8.27996Z" class="color011d47 svgShape colorStrokeffffff svgStroke"></path>
  <path stroke="#ffffff" stroke-width=".579" d="M1.32666 6.21094L16.4499 6.21094M1.73779 11.9863H15.6627" class="colorStrokeffffff svgStroke"></path>
</svg>
