<svg xmlns="http://www.w3.org/2000/svg" width="36" height="36" id="mail">
  <g fill="#fff" transform="translate(2 -1018.974)">
    <circle cx="16" cy="1036.974" r="18" fill="#ef4c45" fill-rule="evenodd"></circle>
    <path fill="#df2209" d="M17.502 35.975A18 18 0 0 0 18 36a18 18 0 0 0 1.273-.045 18 18 0 0 0 1.786-.217 18 18 0 0 0 1.755-.394 18 18 0 0 0 1.707-.567 18 18 0 0 0 1.643-.736 18 18 0 0 0 1.56-.895A18 18 0 0 0 29.19 32.1a18 18 0 0 0 1.352-1.188 18 18 0 0 0 1.227-1.316 18 18 0 0 0 1.087-1.432 18 18 0 0 0 .942-1.535 18 18 0 0 0 .781-1.62 18 18 0 0 0 .617-1.689 18 18 0 0 0 .446-1.744 18 18 0 0 0 .127-.842L25.504 10.471v-.004h-4.705l-2.514-1.881a.5.5 0 0 0-.28-.1v.004a.5.5 0 0 0-.048 0 .5.5 0 0 0-.27.1l-2.507 1.879h-4.676v3.504l-1.697 1.271a.5.5 0 0 0-.29.637.5.5 0 0 0-.013.115V26.967a.5.5 0 0 0 .002.072.5.5 0 0 0 .02.098.5.5 0 0 0 .017.045.5.5 0 0 0 .021.043.5.5 0 0 0 .168.18.5.5 0 0 0 .002 0 .5.5 0 0 0 .041.025.5.5 0 0 0 .002 0 .5.5 0 0 0 .141.047.5.5 0 0 0 .002 0 .5.5 0 0 0 .047.01.5.5 0 0 0 .002 0 .5.5 0 0 0 .004 0 .5.5 0 0 0 .03 0 .5.5 0 0 0 .015 0h.005l.004.003h-.01l8.485 8.485z" color="#000" font-family="sans-serif" font-weight="400" style="line-height:normal;text-indent:0;text-align:start;text-decoration-line:none;text-decoration-style:solid;text-decoration-color:#000;text-transform:none;block-progression:tb;isolation:auto;mix-blend-mode:normal" transform="translate(-2 1018.973)"></path>
    <path d="M16.006 6.5a.5.5 0 0 0-.049.002.5.5 0 0 0-.27.1L13.18 8.48H8.504v3.504l-1.697 1.272a.5.5 0 0 0-.29.637.5.5 0 0 0-.013.115v10.967a.5.5 0 0 0 .002.076.5.5 0 0 0 .02.097.5.5 0 0 0 .017.045.5.5 0 0 0 0 .002.5.5 0 0 0 .021.043.5.5 0 0 0 0 .002.5.5 0 0 0 .168.18.5.5 0 0 0 .002 0 .5.5 0 0 0 .041.025.5.5 0 0 0 .002 0 .5.5 0 0 0 .141.047.5.5 0 0 0 .002 0 .5.5 0 0 0 .047.006.5.5 0 0 0 .002 0 .5.5 0 0 0 .004 0 .5.5 0 0 0 .03.002.5.5 0 0 0 .015 0h17.88a.5.5 0 0 0 .606-.576V14.008a.5.5 0 0 0-.037-.197.5.5 0 0 0-.264-.537l-1.7-1.272V8.481H18.8L16.285 6.6a.5.5 0 0 0-.28-.1Zm-.018 1.125 1.143.855h-2.283l1.14-.855ZM9.504 9.48h13V14.674l-6.518 4.07-6.482-4.04V9.48zm3 .989v1.062h6.984V10.47h-6.984zm-1 2.031v1.063h9V12.5h-9zm-3 .734v.848l-.617-.385.617-.463zm15 .016.582.436-.582.363v-.799zm-10 1.25v1.063h5V14.5h-5zm11 .104v9.47l-5.217-3.486a.5.5 0 0 0-.283-.09v.002a.5.5 0 0 0-.274.92l4.614 3.08H8.654l4.62-3.08a.5.5 0 0 0-.288-.92.5.5 0 0 0-.267.088l-5.215 3.478v-9.431l1 .623 7.219 4.5.033.021h.006a.5.5 0 0 0 .002.002.5.5 0 0 0 .002 0 .5.5 0 0 0 .013.006.5.5 0 0 0 .077.028.5.5 0 0 0 .029.007.5.5 0 0 0 .02.004.5.5 0 0 0 .003 0 .5.5 0 0 0 .045.006.5.5 0 0 0 .006 0 .5.5 0 0 0 .123-.008.5.5 0 0 0 .02-.004.5.5 0 0 0 .095-.033.5.5 0 0 0 .016-.008h.006l.027-.017a.5.5 0 0 0 .006-.004l7.252-4.53 1-.624z" color="#000" font-family="sans-serif" font-weight="400" overflow="visible" style="line-height:normal;text-indent:0;text-align:start;text-decoration-line:none;text-decoration-style:solid;text-decoration-color:#000;text-transform:none;block-progression:tb;isolation:auto;mix-blend-mode:normal" transform="translate(0 1020.967)"></path>
  </g>
</svg>
